<svg width="284" height="67" viewBox="0 0 284 67" fill="none" xmlns="http://www.w3.org/2000/svg">
<path d="M22.92 33.36C22.92 36.6133 23.4533 38.8267 24.52 40C25.5867 41.12 26.92 41.68 28.52 41.68C31.0267 41.68 33.56 41.2533 36.12 40.4L37.32 40L40.76 46.88C40.28 47.3067 39.56 47.8667 38.6 48.56C37.64 49.2 35.48 50.08 32.12 51.2C28.8133 52.2667 25.3733 52.8 21.8 52.8C18.28 52.8 15.32 52.2933 12.92 51.28C10.52 50.2667 8.68 49.0933 7.4 47.76C6.12 46.3733 5.08 44.56 4.28 42.32C3.48 40.0267 2.94667 38.08 2.68 36.48C2.46667 34.88 2.28 32.88 2.12 30.48L0.2 3.52H36.2L38.44 13.12L24.84 14.32L24.04 22.08H34.76L36.36 29.6L22.92 32.96V33.36ZM43.9219 32.16C43.9219 28.48 44.4285 25.3067 45.4419 22.64C46.5085 19.9733 47.8952 17.9733 49.6019 16.64C52.7485 14.1867 56.2419 12.96 60.0819 12.96C62.0019 12.96 63.7619 13.36 65.3619 14.16C67.0152 14.9067 68.1619 15.68 68.8019 16.48L69.7619 17.6L69.1219 0.0799961H87.3619L85.2019 52H73.2019L71.8419 46.8C68.6419 50.7467 64.6952 52.72 60.0019 52.72C55.3619 52.7733 51.5219 51.04 48.4819 47.52C45.4419 44 43.9219 38.88 43.9219 32.16ZM65.2019 23.68C62.0552 23.68 60.4819 26.88 60.4819 33.28C60.4819 34.4533 60.5619 35.5733 60.7219 36.64C60.8819 37.7067 61.3619 38.8267 62.1619 40C62.9619 41.1733 64.1352 41.76 65.6819 41.76C67.2285 41.76 68.4019 40.9067 69.2019 39.2C70.0552 37.44 70.4819 35.4667 70.4819 33.28C70.4819 26.88 68.7219 23.68 65.2019 23.68ZM107.254 52.8C97.1744 52.8 92.1344 45.9467 92.1344 32.24C92.1344 28.56 92.7477 22.5067 93.9744 14.08H109.494V31.36C109.494 37.5467 111.228 40.64 114.694 40.64C117.734 40.64 119.254 37.8667 119.254 32.32C119.254 31.8933 119.254 31.44 119.254 30.96L118.534 14.08H136.534L134.854 52H121.334L120.454 44.64C120.348 44.8533 120.214 45.1467 120.054 45.52C119.894 45.8933 119.441 46.56 118.694 47.52C118.001 48.4267 117.201 49.2533 116.294 50C115.388 50.6933 114.134 51.3333 112.534 51.92C110.934 52.5067 109.174 52.8 107.254 52.8ZM169.913 52.8C166.926 52.8 164.446 52.1067 162.473 50.72C160.713 49.44 159.353 48.1333 158.393 46.8L157.353 65.68H143.673L141.353 14.08H158.553L159.433 18.56C159.7 18.1333 160.1 17.6267 160.633 17.04C161.22 16.4 162.42 15.5733 164.233 14.56C166.1 13.4933 168.02 12.96 169.993 12.96C171.966 12.96 173.806 13.2533 175.513 13.84C177.273 14.4267 178.98 15.3867 180.633 16.72C182.34 18 183.7 19.9733 184.713 22.64C185.78 25.3067 186.313 28.48 186.313 32.16C186.313 38.88 184.793 44 181.753 47.52C178.713 51.04 174.766 52.8 169.913 52.8ZM165.033 23.76C161.513 23.76 159.753 26.96 159.753 33.36C159.753 35.6 160.126 37.5733 160.873 39.28C161.673 40.9867 162.846 41.84 164.393 41.84C165.94 41.84 167.113 41.28 167.913 40.16C169.14 38.4533 169.753 36.1867 169.753 33.36C169.753 26.96 168.18 23.76 165.033 23.76ZM204.408 52.8C200.301 52.8 196.915 51.6 194.248 49.2C191.635 46.8 190.328 43.4133 190.328 39.04C190.328 34.6133 191.821 31.4133 194.808 29.44C197.795 27.4133 201.395 26.4 205.608 26.4C209.821 26.4 213.475 27.0667 216.568 28.4C215.875 23.9733 213.075 21.76 208.168 21.76C205.928 21.76 203.155 22.2133 199.848 23.12L197.848 15.92C202.648 13.9467 207.528 12.96 212.488 12.96C226.781 12.96 233.928 19.04 233.928 31.2C233.928 35.36 233.448 41.12 232.488 48.48L232.088 52H218.888L218.408 47.6C214.781 51.0667 210.115 52.8 204.408 52.8ZM211.608 42.88C214.008 42.88 216.061 42.2133 217.768 40.88L217.288 35.6C215.955 34.6933 214.461 34.24 212.808 34.24C211.208 34.24 209.875 34.64 208.808 35.44C207.795 36.24 207.288 37.2267 207.288 38.4C207.288 39.5733 207.688 40.6133 208.488 41.52C209.288 42.4267 210.328 42.88 211.608 42.88ZM266.457 43.12V42.48C266.297 43.3867 265.87 44.4 265.177 45.52C264.537 46.5867 263.817 47.4933 263.017 48.24C262.217 48.9867 261.07 49.6533 259.577 50.24C258.137 50.8267 256.217 51.12 253.817 51.12C251.417 51.12 249.15 50.5867 247.017 49.52C244.884 48.4 243.23 46.88 242.057 44.96C239.817 41.3867 238.697 37.4667 238.697 33.2C238.697 28.88 239.31 22.5067 240.537 14.08H256.057V31.36C256.057 37.2267 257.79 40.16 261.257 40.16C262.804 40.16 263.95 39.4667 264.697 38.08C265.444 36.6933 265.817 34.9333 265.817 32.8C265.817 32.5333 265.817 32.24 265.817 31.92L265.097 14.08H283.097L281.977 38.64C281.817 42.1067 281.55 45.0667 281.177 47.52C280.857 49.9733 280.217 52.48 279.257 55.04C278.35 57.6533 277.15 59.76 275.657 61.36C272.19 64.9867 267.044 66.8 260.217 66.8C255.417 66.8 250.91 65.3067 246.697 62.32L245.977 61.84L249.337 54.96C251.897 56.1333 254.297 56.72 256.537 56.72C259.63 56.72 262.057 55.52 263.817 53.12C265.577 50.7733 266.457 47.44 266.457 43.12Z" fill="#2DB400"/>
</svg>
