<svg width="32" height="32" viewBox="0 0 32 32" fill="none" xmlns="http://www.w3.org/2000/svg">
<path d="M19.1185 0.25C19.3567 0.250008 19.5887 0.325609 19.7812 0.465916C19.9736 0.606223 20.1166 0.803995 20.1895 1.03075L21.427 4.876C21.9468 5.13025 22.444 5.416 22.9188 5.73775L26.8698 4.88725C27.1027 4.83751 27.3454 4.863 27.563 4.96005C27.7805 5.05709 27.9616 5.22068 28.0803 5.42725L31.1988 10.825C31.3178 11.0315 31.3683 11.2704 31.3428 11.5074C31.3173 11.7443 31.2172 11.9671 31.057 12.1435L28.3458 15.136C28.3852 15.7098 28.3852 16.2857 28.3458 16.8595L31.057 19.8565C31.2172 20.0329 31.3173 20.2557 31.3428 20.4926C31.3683 20.7296 31.3178 20.9685 31.1988 21.175L28.0803 26.575C27.9613 26.7812 27.78 26.9443 27.5625 27.0409C27.345 27.1375 27.1025 27.1627 26.8698 27.1128L22.9188 26.2622C22.4463 26.5817 21.9468 26.8698 21.4293 27.124L20.1895 30.9692C20.1166 31.196 19.9736 31.3938 19.7812 31.5341C19.5887 31.6744 19.3567 31.75 19.1185 31.75H12.8815C12.6433 31.75 12.4113 31.6744 12.2188 31.5341C12.0264 31.3938 11.8834 31.196 11.8105 30.9692L10.5752 27.1262C10.0569 26.8727 9.55694 26.5833 9.079 26.26L5.13025 27.1128C4.8973 27.1625 4.65457 27.137 4.43703 27.04C4.21949 26.9429 4.03837 26.7793 3.91975 26.5728L0.80125 21.175C0.682167 20.9685 0.631728 20.7296 0.657204 20.4926C0.68268 20.2557 0.782755 20.0329 0.942999 19.8565L3.65425 16.8595C3.61496 16.2872 3.61496 15.7128 3.65425 15.1405L0.942999 12.1435C0.782755 11.9671 0.68268 11.7443 0.657204 11.5074C0.631728 11.2704 0.682167 11.0315 0.80125 10.825L3.91975 5.425C4.03869 5.21884 4.21996 5.05572 4.43747 4.95909C4.65498 4.86246 4.89754 4.83731 5.13025 4.88725L9.079 5.74C9.556 5.41825 10.0555 5.128 10.5752 4.87375L11.8127 1.03075C11.8854 0.804725 12.0277 0.607477 12.2193 0.467237C12.4108 0.326998 12.6418 0.250958 12.8792 0.25H19.1163H19.1185ZM18.295 2.5H13.705L12.427 6.47575L11.5652 6.8965C11.1416 7.1038 10.7327 7.33985 10.3412 7.603L9.54475 8.143L5.45875 7.261L3.16375 11.239L5.965 14.3395L5.8975 15.2935C5.86516 15.7639 5.86516 16.2361 5.8975 16.7065L5.965 17.6605L3.15925 20.761L5.4565 24.739L9.5425 23.8592L10.339 24.397C10.7304 24.6602 11.1394 24.8962 11.563 25.1035L12.4247 25.5243L13.705 29.5H18.2995L19.582 25.522L20.4415 25.1035C20.8647 24.8967 21.2729 24.6606 21.6632 24.397L22.4575 23.8592L26.5458 24.739L28.8407 20.761L26.0373 17.6605L26.1048 16.7065C26.1372 16.2353 26.1372 15.7624 26.1048 15.2913L26.0373 14.3373L28.843 11.239L26.5458 7.261L22.4575 8.1385L21.6632 7.603C21.2729 7.33937 20.8647 7.1033 20.4415 6.8965L19.582 6.478L18.2972 2.5H18.295ZM16 9.25C17.7902 9.25 19.5071 9.96116 20.773 11.227C22.0388 12.4929 22.75 14.2098 22.75 16C22.75 17.7902 22.0388 19.5071 20.773 20.773C19.5071 22.0388 17.7902 22.75 16 22.75C14.2098 22.75 12.4929 22.0388 11.227 20.773C9.96116 19.5071 9.25 17.7902 9.25 16C9.25 14.2098 9.96116 12.4929 11.227 11.227C12.4929 9.96116 14.2098 9.25 16 9.25ZM16 11.5C14.8065 11.5 13.6619 11.9741 12.818 12.818C11.9741 13.6619 11.5 14.8065 11.5 16C11.5 17.1935 11.9741 18.3381 12.818 19.182C13.6619 20.0259 14.8065 20.5 16 20.5C17.1935 20.5 18.3381 20.0259 19.182 19.182C20.0259 18.3381 20.5 17.1935 20.5 16C20.5 14.8065 20.0259 13.6619 19.182 12.818C18.3381 11.9741 17.1935 11.5 16 11.5Z" fill="black"/>
</svg>
